<?xml version="1.0" encoding="UTF-8" standalone="no"?>
<!-- Generator: Gravit.io -->
<svg xmlns="http://www.w3.org/2000/svg" xmlns:xlink="http://www.w3.org/1999/xlink" style="isolation:isolate" viewBox="322 164 586 302" width="586pt" height="302pt"><g style="isolation:isolate"><g><g><line x1="782" y1="168" x2="782" y2="232" vector-effect="non-scaling-stroke" stroke-width="4" stroke="rgb(46,46,46)" stroke-linejoin="miter" stroke-linecap="square" stroke-miterlimit="3"/><path d=" M 776 210 L 780 204 L 784 204 L 788 210 L 788 294 L 776 294 L 776 210 Z " fill="rgb(46,46,46)"/></g><g><line x1="677" y1="222" x2="677" y2="336" vector-effect="non-scaling-stroke" stroke-width="4" stroke="rgb(46,46,46)" stroke-linejoin="miter" stroke-linecap="square" stroke-miterlimit="3"/><path d=" M 671 311 L 675 305 L 679 305 L 683 311 L 683 365 L 671 365 L 671 311 Z " fill="rgb(46,46,46)"/></g><g><line x1="540" y1="295" x2="540" y2="404" vector-effect="non-scaling-stroke" stroke-width="4" stroke="rgb(46,46,46)" stroke-linejoin="miter" stroke-linecap="square" stroke-miterlimit="3"/><path d=" M 534 378 L 538 372 L 542 372 L 546 378 L 546 432 L 534 432 L 534 378 Z " fill="rgb(46,46,46)"/></g><g><line x1="357" y1="390" x2="357" y2="431" vector-effect="non-scaling-stroke" stroke-width="4" stroke="rgb(46,46,46)" stroke-linejoin="miter" stroke-linecap="square" stroke-miterlimit="3"/><path d=" M 351 412 L 355 406 L 359 406 L 363 412 L 363 466 L 351 466 L 351 412 Z " fill="rgb(46,46,46)"/></g><g><line x1="878" y1="168" x2="878" y2="213" vector-effect="non-scaling-stroke" stroke-width="4" stroke="rgb(46,46,46)" stroke-linejoin="miter" stroke-linecap="square" stroke-miterlimit="3"/><path d=" M 872 190 L 876 184 L 880 184 L 884 190 L 884 294 L 872 294 L 872 190 Z " fill="rgb(46,46,46)"/></g></g><path d=" M 324 390 L 359 390 L 782 166 L 906 166" fill="none" vector-effect="non-scaling-stroke" stroke-width="4" stroke="rgb(70,70,70)" stroke-linejoin="round" stroke-linecap="square" stroke-miterlimit="3"/></g></svg>